<?xml version="1.0" encoding="UTF-8" standalone="no"?>
<svg
   xmlns:dc="http://purl.org/dc/elements/1.1/"
   xmlns:cc="http://creativecommons.org/ns#"
   xmlns:rdf="http://www.w3.org/1999/02/22-rdf-syntax-ns#"
   xmlns:svg="http://www.w3.org/2000/svg"
   xmlns="http://www.w3.org/2000/svg"
   id="svg2051"
   version="1.1"
   viewBox="0 0 270.93334 270.93335"
   height="1024"
   width="1024">
  <defs
     id="defs2045" />
  <metadata
     id="metadata2048">
    <rdf:RDF>
      <cc:Work
         rdf:about="">
        <dc:format>image/svg+xml</dc:format>
        <dc:type
           rdf:resource="http://purl.org/dc/dcmitype/StillImage" />
        <dc:title></dc:title>
      </cc:Work>
    </rdf:RDF>
  </metadata>
  <g
     transform="translate(-97.635544,97.954159)"
     id="layer1">
    <rect
       y="-97.954163"
       x="97.635544"
       height="270.93335"
       width="270.93335"
       id="rect2297"
       style="opacity:1;fill:white;fill-opacity:1;fill-rule:nonzero;stroke:none;stroke-width:1.85208344;stroke-linecap:round;stroke-linejoin:round;stroke-miterlimit:4;stroke-dasharray:none;stroke-dashoffset:95;stroke-opacity:1" />
    <g
       transform="matrix(3.1507693,0,0,3.1507693,-209.99194,-372.0383)"
       id="g2295"
       style="stroke-width:0.31738281">
      <path
         style="opacity:0.581;fill:#81fff5;fill-opacity:1;fill-rule:nonzero;stroke:none;stroke-width:2.22167969;stroke-linecap:round;stroke-linejoin:round;stroke-miterlimit:4;stroke-dasharray:none;stroke-dashoffset:95;stroke-opacity:1"
         d="m 86.425441,301.71423 c -4.461164,-8.72152 -9.50589,-15.8723 -24.495226,-34.7214 C 46.016203,246.98095 40.240466,238.62939 37.760268,232.04376 36.0785,227.57819 35.863537,219.5216 37.314544,215.33844 c 2.714472,-7.82566 11.989871,-13.76385 21.470368,-13.74552 12.66842,0.0245 20.068903,5.64943 26.3264,20.0101 3.114584,7.14783 4.533106,9.8559 5.008676,9.56198 0.229016,-0.14154 1.367105,-3.18314 2.529083,-6.7591 1.161979,-3.57597 2.955247,-7.94722 3.985042,-9.7139 3.712317,-6.36874 9.875177,-11.02867 16.660937,-12.59786 1.55904,-0.36053 4.94292,-0.5418 8.1465,-0.43642 l 5.47975,0.18027 9.27605,-8.33376 C 190.04012,145.131 247.07206,91.238993 246.65556,89.127389 c -0.21909,-1.110724 -4.9586,-3.480209 -9.12685,-4.562899 -1.8751,-0.48705 -3.40926,-1.037162 -3.40926,-1.222471 0,-1.059934 11.41876,-6.08817 38.96753,-17.159297 14.46504,-5.813123 16.59086,-6.527486 16.59086,-5.575231 0,2.482925 -26.22339,53.094689 -27.50986,53.094689 -0.0924,0 -0.53673,-1.65764 -0.98748,-3.68366 -0.8493,-3.81744 -3.45394,-9.9534 -4.2251,-9.9534 -0.50166,0 1.02438,-1.350152 -29.40195,26.01308 -34.94084,31.42327 -57.81977,52.33717 -86.78045,79.32705 l -3.82775,3.56727 1.5922,1.98857 c 4.50741,5.62952 5.04979,13.17724 1.62189,22.56992 -2.74963,7.53415 -6.607,13.15094 -23.63188,34.41077 -12.02362,15.01451 -17.349056,22.41758 -22.570433,31.37593 -1.619113,2.77792 -3.334877,5.7071 -3.812821,6.50928 l -0.868984,1.45852 z"
         id="path2290"
         transform="matrix(0.26458334,0,0,0.26458334,97.635512,86.989618)" />
      <path
         style="fill:black;stroke-width:1.19955707"
         d="M 98.224609,6 C 90.805928,6 88.175825,6.4801426 81.474609,9.0605469 70.590593,13.251616 57.555613,16.523355 43.921875,18.486328 26.210292,21.036424 27.970703,20.043068 27.970703,27.5 c 0,7.366454 -1.2217,6.56381 12.701172,8.355469 14.037089,1.806357 19.332183,6.110042 22.935547,18.644531 1.536945,5.346406 1.765943,13.298587 2.113281,73 l 0.390625,67 -7.820312,0.0801 c -9.454639,0.0977 -15.709627,2.69886 -21.97461,9.13672 -4.902349,5.03765 -7.345703,11.45159 -7.345703,19.27929 0,12.12159 3.315084,18.29831 23.236328,43.28711 l 12.583985,15.78516 -1.021485,3.71484 c -3.370242,12.27436 -11.801509,18.20523 -28.048828,19.72657 l -7.75,0.72461 V 312.11719 318 h 58.5 58.499997 v -5.7832 -5.78125 l -9.32812,-1.10938 c -5.39044,-0.64089 -11.00531,-1.96465 -13.30274,-3.13672 -4.79365,-2.44554 -9.79245,-7.38335 -11.39648,-11.25586 -1.41604,-3.41858 -1.19019,-3.77742 13.92187,-21.93359 12.18528,-14.63973 19.21194,-24.99626 21.98438,-32.40625 2.87618,-7.68733 3.56136,-16.08878 1.7832,-21.84375 -1.39275,-4.53887 40.84326,53.49898 47.97852,67.97461 1.3728,3.1042 2.74495,7.74339 3.04883,10.30859 0.49062,4.14271 0.22565,5.02952 -2.36914,7.9336 -2.70471,3.02713 -3.62157,3.35559 -12.3711,4.43359 l -9.44922,1.16406 -0.29882,5.66602 -0.29883,5.66601 5.79883,0.36329 c 3.18906,0.1991 29.75935,0.44684 59.04687,0.55078 l 53.25,0.18945 v -6.81055 -6.81054 l -5.25,-1.29688 c -12.97859,-3.20474 -27.63019,-12.59566 -38.61523,-24.74805 -5.14039,-5.68671 -72.13477,-100.01521 -72.13477,-101.5664 0,-0.5119 72.57142,-66.8344 76.69141,-70.08789 2.27856,-1.79928 2.31773,-1.78748 3.38476,1 0.59392,1.55146 1.65962,5.07029 2.36719,7.82031 0.70753,2.74998 1.84918,5 2.53906,5 1.85654,0 36.31912,-66.600748 35.09571,-67.824219 -1.12846,-1.128415 0.23679,-1.631764 -41.07813,15.179688 -29.60262,12.04558 -33.48679,14.282306 -27.31641,15.736328 4.16878,0.982299 11.81108,2.520675 11.81108,3.360483 -32.55277,39.27405 -77.91674,69.65966 -113.99467,105.76647 l -7.5,0.56836 c -4.12501,0.31279 -8.51251,0.87903 -9.75,1.25781 l -2.25,0.6875 c -0.0265,-48.15843 -0.0533,-94.67469 0,-142.98242 L 107.02344,6 Z M 289.27148,59.769531 c 0.26824,-0.02243 0.42691,0.01375 0.54688,0.08398 4.8e-4,2.77e-4 0.001,-2.79e-4 0.002,0 0.1193,0.07023 0.20101,0.173663 0.3125,0.285156 0.0303,0.03033 0.0331,0.111794 0.01,0.240234 -0.0233,0.128441 -0.0728,0.30328 -0.14649,0.523438 -2.5e-4,7.58e-4 2.6e-4,0.0012 0,0.002 -0.14732,0.440236 -0.39223,1.056089 -0.7207,1.824219 -3e-4,7.11e-4 3e-4,0.0012 0,0.002 -0.10166,0.237722 -0.26156,0.579789 -0.37891,0.845703 -0.51988,1.178052 -1.18067,2.608872 -1.96679,4.259766 -0.18416,0.386731 -0.33479,0.710908 -0.53125,1.11914 -2.8e-4,5.82e-4 2.8e-4,0.0014 0,0.002 -1.22466,2.544711 -2.67964,5.490016 -4.25977,8.632813 -4.3e-4,8.54e-4 -0.002,0.0011 -0.002,0.002 -1.5801,3.142713 -3.28381,6.482543 -5.00781,9.814453 -4.1e-4,7.95e-4 -0.002,0.0012 -0.002,0.002 -3.44843,6.664605 -6.9738,13.299447 -9.72851,18.267577 -1.37751,2.48435 -2.5626,4.55333 -3.44922,6 -0.66497,1.08501 -1.16063,1.81913 -1.44531,2.11914 -0.0956,0.10096 -0.16664,0.15235 -0.21289,0.15235 -0.0855,0 -0.1806,-0.0471 -0.28125,-0.13282 -0.10066,-0.0857 -0.20838,-0.2104 -0.31836,-0.36328 -0.17578,-1.13667 -0.4,-2.26299 -0.67188,-3.375 -0.0179,-0.0737 -0.0364,-0.14716 -0.0547,-0.2207 -0.2744,-1.10681 -0.59574,-2.19792 -0.96289,-3.26953 -0.37599,-1.09067 -0.79902,-2.15967 -1.26757,-3.20313 -0.0173,-0.0386 -0.0353,-0.0767 -0.0527,-0.11523 -0.46736,-1.03557 -0.97904,-2.04459 -1.5332,-3.02344 -0.001,-0.002 -0.003,-0.004 -0.004,-0.006 l -0.002,-0.004 c -0.0511,-0.0816 -0.10257,-0.16301 -0.1543,-0.244146 -14.68985,13.073896 -84.61446,75.730616 -119.63476,109.015626 4.2845,4.73142 6.00237,10.03136 5.20312,16.05664 -1.48513,11.19538 -6.03774,18.88093 -24.50391,41.36719 -5.90313,7.18824 -12.89782,16.13792 -15.54296,19.88672 -2.645115,3.74887 -6.695324,10.1238 -9.000004,14.16797 l -4.189454,7.35351 -3.074218,-6.16797 C 82.162163,293.47043 76.248902,285.25219 58.056641,262.5 39.879835,239.76716 35.963651,232.77627 35.986328,223.11523 c 0.02071,-8.32573 2.638756,-13.34761 9.283203,-17.80859 5.768806,-3.87307 12.248887,-5.02129 19.623047,-3.47656 10.278387,2.15308 15.852553,7.92854 21.626953,22.40625 1.551331,3.88953 2.925617,6.52856 3.535157,6.87305 0.132663,-0.11561 0.311198,-0.4353 0.501953,-0.80665 0.379823,-1.17999 1.070138,-3.47576 1.759765,-5.89453 4.041827,-14.17629 12.389904,-22.03571 24.566404,-23.1289 0.97033,-0.0871 1.90781,-0.13612 2.81641,-0.14453 2.42372,-0.0224 4.63749,0.24187 6.70117,0.80468 30.5411,-27.12549 101.32411,-92.33658 114.68555,-106.56445 1.79791,-2.097593 4.04391,-4.218832 5.73828,-6.40625 -0.33205,-0.240215 -0.66805,-0.473329 -1.00781,-0.699219 -0.0499,-0.03104 -0.10035,-0.06105 -0.15039,-0.0918 -0.89717,-0.553123 -1.81753,-1.056323 -2.75782,-1.507812 -0.93583,-0.444705 -1.89007,-0.837743 -2.85937,-1.177734 -0.0643,-0.02269 -0.12886,-0.04417 -0.19336,-0.06641 -0.97042,-0.337056 -1.95465,-0.620591 -2.94922,-0.849609 -0.86106,-0.196773 -1.72901,-0.352508 -2.60156,-0.466797 -0.25316,-0.158755 -0.39339,-0.335458 -0.40625,-0.541016 -0.007,-0.102407 0.0175,-0.210788 0.0762,-0.328125 0.11738,-0.234688 0.36931,-0.500972 0.77148,-0.808593 0.40221,-0.3076 0.95428,-0.656548 1.67188,-1.054688 3.22902,-1.791747 9.80755,-4.589304 21.12695,-9.195312 24.58288,-10.002973 30.11739,-12.277181 31.72656,-12.41211 z"
         id="path2075"
         transform="matrix(0.26458334,0,0,0.26458334,97.635512,86.989618)" />
    </g>
  </g>
</svg>
