<?xml version="1.0" encoding="UTF-8" standalone="no"?>
<!-- Created with Inkscape (http://www.inkscape.org/) -->

<svg
   xmlns:dc="http://purl.org/dc/elements/1.1/"
   xmlns:cc="http://creativecommons.org/ns#"
   xmlns:rdf="http://www.w3.org/1999/02/22-rdf-syntax-ns#"
   xmlns:svg="http://www.w3.org/2000/svg"
   xmlns="http://www.w3.org/2000/svg"
   xmlns:sodipodi="http://sodipodi.sourceforge.net/DTD/sodipodi-0.dtd"
   xmlns:inkscape="http://www.inkscape.org/namespaces/inkscape"
   version="1.1"
   id="svg2"
   width="2048"
   height="2048"
   viewBox="0 0 2048.0001 2048.0001"
   sodipodi:docname="kepi.svg"
   inkscape:version="0.92.3 (2405546, 2018-03-11)"
   inkscape:export-filename="/home/marnanel/proj/kepi/docs/kepi.png"
   inkscape:export-xdpi="96"
   inkscape:export-ydpi="96">
  <metadata
     id="metadata8">
    <rdf:RDF>
      <cc:Work
         rdf:about="">
        <dc:format>image/svg+xml</dc:format>
        <dc:type
           rdf:resource="http://purl.org/dc/dcmitype/StillImage" />
        <dc:title></dc:title>
      </cc:Work>
    </rdf:RDF>
  </metadata>
  <defs
     id="defs6" />
  <sodipodi:namedview
     pagecolor="#ffffff"
     bordercolor="#666666"
     borderopacity="1"
     objecttolerance="10"
     gridtolerance="10"
     guidetolerance="10"
     inkscape:pageopacity="0"
     inkscape:pageshadow="2"
     inkscape:window-width="1366"
     inkscape:window-height="713"
     id="namedview4"
     showgrid="false"
     inkscape:zoom="0.17285157"
     inkscape:cx="1019.4926"
     inkscape:cy="917.41052"
     inkscape:window-x="0"
     inkscape:window-y="27"
     inkscape:window-maximized="1"
     inkscape:current-layer="svg2"
     fit-margin-top="20"
     fit-margin-left="20"
     fit-margin-right="20"
     fit-margin-bottom="20" />
  <g
     id="g826"
     transform="matrix(1.5049208,0,0,1.5315931,-21.249834,88.051169)"
     style="stroke-width:0.65867549">
    <rect
       y="191.96471"
       x="319.47003"
       height="728.9491"
       width="786.80219"
       id="rect821"
       style="opacity:1;vector-effect:none;fill:aqua;fill-opacity:1;fill-rule:nonzero;stroke:#03faff;stroke-width:1.97602618;stroke-linecap:butt;stroke-linejoin:miter;stroke-miterlimit:4;stroke-dasharray:none;stroke-dashoffset:0;stroke-opacity:1;paint-order:normal" />
    <path
       sodipodi:nodetypes="ccccccccccccccccccccccccccc"
       inkscape:connector-curvature="0"
       id="path817"
       d="M 513.42163,1192.1837 C 366.36794,1189.6362 204.03155,1174.9651 89.724268,1071.7448 45.770701,1027.5086 8.3943496,956.13551 44.354012,896.25631 87.794417,837.14518 166.2627,880.54978 212.05854,913.52687 239.23172,936.21921 268.9893,951.82791 252.39532,902.46979 247.72524,762.79145 247.89091,622.52984 225.09281,484.2698 210.11428,380.13928 174.48508,278.98519 169.59018,173.32419 c 13.28384,-58.94237 82.75453,-79.516916 133.47308,-96.359056 211.21555,-58.15737 433.9004,-55.6235 649.81983,-28.33688 93.39091,20.74164 198.04831,30.25876 272.96501,95.300536 35.2382,227.08667 -97.9016,508.56023 -18.5436,714.76043 38.1585,-29.90014 98.0219,-58.04902 139.7588,-20.88987 31.85,59.26723 -3.4187,137.37236 -64.1536,161.55466 -95.2046,46.27569 -197.6485,74.40379 -297.38741,108.87099 -120.32088,36.6269 -244.17036,62.498 -369.00904,78.0352 -34.38353,1.5534 -68.76466,3.9113 -103.09162,5.9235 z M 719.39659,877.24892 C 785.39148,767.76252 894.8128,694.61834 975.91203,599.39026 1018.5006,547.70642 1045.3215,481.6832 1036.3442,413.65175 1030.6345,315.8163 932.87787,235.78387 835.51616,249.7762 c -57.0513,0.94322 -109.29123,37.10833 -139.58738,83.81716 -39.3879,-56.89325 -111.02224,-88.10378 -179.96604,-76.42863 -95.70664,10.91636 -171.29543,108.62349 -155.62993,204.60692 3.04322,95.93863 74.36604,170.34074 144.78239,226.98449 68.22718,58.31575 140.283,115.01804 191.91229,189.47413 l 10.82872,1.73481 z"
       style="fill:black;stroke:#07f9fe;stroke-width:13.17350864;stroke-miterlimit:4;stroke-dasharray:none;stroke-opacity:1" />
  </g>
</svg>
